<svg viewBox="0 0 28 22" fill="none" xmlns="http://www.w3.org/2000/svg"><defs><clipPath id="a"><rect rx="0" width="27" height="21" transform="translate(.5 .5)" fill="#fff" fill-opacity="0"/></clipPath></defs><rect rx="0" width="27" height="21" transform="translate(.5 .5)"/><g clip-path="url(#a)"><path d="M23.46 3.15c.17.15.26.38.22.61l-2.62 15.76a.67.67 0 0 1-.39.49.65.65 0 0 1-.63-.06l-7.87-5.25a.64.64 0 0 1-.15-.95l2.61-3.27-4.36 2.91a.65.65 0 0 1-.66.04l-5.25-2.63a.63.63 0 0 1-.36-.62.64.64 0 0 1 .43-.58l18.38-6.57a.67.67 0 0 1 .65.12Zm-17.14 7.17 3.54 1.77 7.56-5.05a.66.66 0 0 1 .85.11c.22.24.23.6.02.85l-4.8 6.01 6.44 4.29 2.27-13.65-15.88 5.67Z" fill="#666" fill-rule="evenodd"/></g></svg>